<?xml version="1.0" encoding="utf-8"?>
<!-- Generator: Adobe Illustrator 23.1.0, SVG Export Plug-In . SVG Version: 6.00 Build 0)  -->
<svg version="1.1" id="Capa_1" xmlns="http://www.w3.org/2000/svg" xmlns:xlink="http://www.w3.org/1999/xlink" x="0px" y="0px"
	 viewBox="0 0 980 936" style="enable-background:new 0 0 980 936;" xml:space="preserve">
<style type="text/css">
	.st0{fill:none;stroke:#000000;stroke-miterlimit:10;}
	.st1{fill:#FFFFFF;stroke:#000000;stroke-miterlimit:10;}
</style>
<polygon class="st0" points="360.5,331.5 490.5,-0.5 635.5,331.5 979.5,331.5 709.5,577.5 825.5,934.5 491.5,712.5 174.5,934.5 
	284.5,576.5 -0.5,330.5 "/>
<polygon class="st1" points="490.5,-0.5 360.5,331.5 -0.5,330.5 -0.5,0 "/>
<polygon class="st1" points="635.5,331.5 490.5,-0.5 979.5,0 979.5,331.5 "/>
<polygon class="st1" points="709.5,577.5 979.5,331.5 979.5,936 825.5,934.5 "/>
<polygon class="st1" points="491.5,712.5 825.5,934.5 174.5,934.5 "/>
<polygon class="st1" points="284.5,576.5 -0.5,330.5 0,936 174.5,934.5 "/>
</svg>
