<?xml version="1.0" encoding="utf-8"?>
<!-- Generator: Adobe Illustrator 23.1.0, SVG Export Plug-In . SVG Version: 6.00 Build 0)  -->
<svg version="1.1" id="Capa_1" xmlns="http://www.w3.org/2000/svg" xmlns:xlink="http://www.w3.org/1999/xlink" x="0px" y="0px"
	 viewBox="0 0 4899.5 936" style="enable-background:new 0 0 4899.5 936;" xml:space="preserve">
<style type="text/css">
	.st0{fill:none;stroke:#000000;stroke-miterlimit:10;}
	.st1{fill:#FFFFFF;stroke:#FFFFFF;stroke-miterlimit:10;}
	.st2{fill:none;stroke:#FFFFFF;stroke-miterlimit:10;}
</style>
<polygon class="st0" points="360.5,331.5 490.5,-0.5 635.5,331.5 979.5,331.5 709.5,577.5 825.5,934.5 491.5,712.5 174.5,934.5 
	284.5,576.5 -0.5,330.5 "/>
<polygon class="st1" points="490.5,-0.5 360.5,331.5 -0.5,330.5 -0.5,0 "/>
<polygon class="st1" points="635.5,331.5 490.5,-0.5 979.5,0 979.5,331.5 "/>
<polygon class="st1" points="709.5,577.5 979.5,331.5 979.5,936 825.5,934.5 "/>
<polygon class="st1" points="491.5,712.5 825.5,934.5 174.5,934.5 "/>
<polygon class="st1" points="284.5,576.5 -0.5,330.5 0,936 174.5,934.5 "/>
<polygon class="st2" points="490.5,-0.5 360.5,331.5 -0.5,330.5 284.5,576.5 174.5,934.5 491.5,712.5 825.5,934.5 709.5,577.5 
	979.5,331.5 635.5,331.5 "/>
<polygon class="st0" points="1340.5,331.5 1470.5,-0.5 1615.5,331.5 1959.5,331.5 1689.5,577.5 1805.5,934.5 1471.5,712.5 
	1154.5,934.5 1264.5,576.5 979.5,330.5 "/>
<polygon class="st1" points="1470.5,-0.5 1340.5,331.5 979.5,330.5 979.5,0 "/>
<polygon class="st1" points="1615.5,331.5 1470.5,-0.5 1959.5,0 1959.5,331.5 "/>
<polygon class="st1" points="1689.5,577.5 1959.5,331.5 1959.5,936 1805.5,934.5 "/>
<polygon class="st1" points="1471.5,712.5 1805.5,934.5 1154.5,934.5 "/>
<polygon class="st1" points="1264.5,576.5 979.5,330.5 980,936 1154.5,934.5 "/>
<polygon class="st0" points="1470.5,-0.5 1340.5,331.5 979.5,330.5 1264.5,576.5 1154.5,934.5 1471.5,712.5 1805.5,934.5 
	1689.5,577.5 1959.5,331.5 1615.5,331.5 "/>
<polygon class="st0" points="2320.5,331.5 2450.5,-0.5 2595.5,331.5 2939.5,331.5 2669.5,577.5 2785.5,934.5 2451.5,712.5 
	2134.5,934.5 2244.5,576.5 1959.5,330.5 "/>
<polygon class="st1" points="2450.5,-0.5 2320.5,331.5 1959.5,330.5 1959.5,0 "/>
<polygon class="st1" points="2595.5,331.5 2450.5,-0.5 2939.5,0 2939.5,331.5 "/>
<polygon class="st1" points="2669.5,577.5 2939.5,331.5 2939.5,936 2785.5,934.5 "/>
<polygon class="st1" points="2451.5,712.5 2785.5,934.5 2134.5,934.5 "/>
<polygon class="st1" points="2244.5,576.5 1959.5,330.5 1960,936 2134.5,934.5 "/>
<polygon class="st0" points="2450.5,-0.5 2320.5,331.5 1959.5,330.5 2244.5,576.5 2134.5,934.5 2451.5,712.5 2785.5,934.5 
	2669.5,577.5 2939.5,331.5 2595.5,331.5 "/>
<polygon class="st0" points="3300.5,330.8 3430.5,-1.3 3575.5,330.8 3919.5,330.8 3649.5,576.8 3765.5,933.8 3431.5,711.8 
	3114.5,933.8 3224.5,575.8 2939.5,329.8 "/>
<polygon class="st1" points="3430.5,-1.3 3300.5,330.8 2939.5,329.8 2939.5,-0.8 "/>
<polygon class="st1" points="3575.5,330.8 3430.5,-1.3 3919.5,-0.8 3919.5,330.8 "/>
<polygon class="st1" points="3649.5,576.8 3919.5,330.8 3919.5,935.3 3765.5,933.8 "/>
<polygon class="st1" points="3431.5,711.8 3765.5,933.8 3114.5,933.8 "/>
<polygon class="st1" points="3224.5,575.8 2939.5,329.8 2940,935.3 3114.5,933.8 "/>
<polygon class="st0" points="3430.5,-1.3 3300.5,330.8 2939.5,329.8 3224.5,575.8 3114.5,933.8 3431.5,711.8 3765.5,933.8 
	3649.5,576.8 3919.5,330.8 3575.5,330.8 "/>
<polygon class="st0" points="4280.5,331.8 4410.5,-0.3 4555.5,331.8 4899.5,331.8 4629.5,577.8 4745.5,934.8 4411.5,712.8 
	4094.5,934.8 4204.5,576.8 3919.5,330.8 "/>
<polygon class="st1" points="4410.5,-0.3 4280.5,331.8 3919.5,330.8 3919.5,0.3 "/>
<polygon class="st1" points="4555.5,331.8 4410.5,-0.3 4899.5,0.3 4899.5,331.8 "/>
<polygon class="st1" points="4629.5,577.8 4899.5,331.8 4899.5,936.3 4745.5,934.8 "/>
<polygon class="st1" points="4411.5,712.8 4745.5,934.8 4094.5,934.8 "/>
<polygon class="st1" points="4204.5,576.8 3919.5,330.8 3920,936.3 4094.5,934.8 "/>
<polygon class="st0" points="4410.5,-0.3 4280.5,331.8 3919.5,330.8 4204.5,576.8 4094.5,934.8 4411.5,712.8 4745.5,934.8 
	4629.5,577.8 4899.5,331.8 4555.5,331.8 "/>
</svg>
